# xmcd
#
# Track frame offsets: 
#        150
#        12591
#        27420
#        42339
#        59775
#        73843
#        88669
#        105624
#        125420
#        143527
#        161232
#        177074
#        195853
#        212102
#
# Disc length: 3037 seconds
#
# Revision: 0
# Processed by: cddbd v1.5.2PL0 Copyright (c) Steve Scherf et al.
# Submitted via: ExactAudioCopy v0.99pb5
#
DISCID=c90bdb0e
DTITLE=Diablos Bullets - Reloaded
DYEAR=2007
DGENRE=Country
TTITLE0=La Mucura
TTITLE1=Who where you thinking of
TTITLE2=I'm your woman
TTITLE3=Spanish harlem
TTITLE4=Apache
TTITLE5=Pay me my money down
TTITLE6=La bamba
TTITLE7=All you ever do is bring me down
TTITLE8=Oh, it's you
TTITLE9=Wasted days and wasted nights
TTITLE10=Una mas cerveza
TTITLE11=Paquita fe
TTITLE12=D'n duuvel is los
TTITLE13=Doeg miech mer 'n pilske
EXTD=
EXTT0=
EXTT1=
EXTT2=
EXTT3=
EXTT4=
EXTT5=
EXTT6=
EXTT7=
EXTT8=
EXTT9=
EXTT10=
EXTT11=
EXTT12=
EXTT13=
PLAYORDER=
